<svg xmlns="http://www.w3.org/2000/svg" viewBox="0 0 500 500"><defs><style>.a{fill:#fefefe;}</style></defs><path class="a" d="M136.73,125.32h0a11.48,11.48,0,0,0-8.18,3.39,11.61,11.61,0,0,0-3.44,8.29V312.14a11.73,11.73,0,0,0,11.7,11.68c27.18.06,72.73,5.73,104.15,38.61V179.14a11.15,11.15,0,0,0-1.6-5.91C213.54,131.69,164,125.38,136.73,125.32Z"/><path class="a" d="M374.92,312.14V137a11.66,11.66,0,0,0-11.62-11.68h0c-27.25.06-76.81,6.37-102.6,47.91a11.15,11.15,0,0,0-1.6,5.91V362.43c31.42-32.88,77-38.55,104.16-38.61A11.73,11.73,0,0,0,374.92,312.14Z"/><path class="a" d="M401.52,165.71h-8.47V312.14A29.88,29.88,0,0,1,363.27,342c-23.06.05-61.08,4.56-88,30.05,46.57-11.4,95.67-4,123.65,2.39A11.68,11.68,0,0,0,413.2,363V177.39A11.69,11.69,0,0,0,401.52,165.71Z"/><path class="a" d="M107,312.14V165.71H98.48A11.69,11.69,0,0,0,86.8,177.39V363a11.67,11.67,0,0,0,14.29,11.38c28-6.37,77.08-13.79,123.65-2.38-26.93-25.49-65-30-88-30.05A29.88,29.88,0,0,1,107,312.14Z"/></svg>